# xmcd CD database file
#
# Track frame offsets:
#	150
#	20643
#	43122
#	65143
#	85081
#	115689
#	139142
#	161615
#	184260
#	206900
#	225429
#	247734
#
# Disc length: 3527 seconds
#
# Revision: 3
# Processed by: cddbd v1.4PL0 Copyright (c) Steve Scherf et al.
# Submitted via: CDex 1.50
#
DISCID=a20dc50c
DTITLE=Various Artist - The Smooth Jazz Box Set  [CD3]
DYEAR=2001
DGENRE=Jazz
TTITLE0=The Jazz Steppers - Mellow
TTITLE1=Keni Burke - Indigenous Love
TTITLE2=Jill Saward - Breathing Space
TTITLE3=Martin Fuss - Nightfall
TTITLE4=Woody Cunningham - Animal
TTITLE5=Jon Dalton - The Gift
TTITLE6=Victor Haynes - For The Love Of You
TTITLE7=Tomio Inoue - Searching
TTITLE8=Cathi Ogden - It's A Feel Thing
TTITLE9=Exodus Quartet - Red
TTITLE10=Nicolas Bearde - (And) It All Goes 'Round and 'Round
TTITLE11=No Se - Das Land
EXTD=YEAR: 2001
EXTT0=
EXTT1=
EXTT2=
EXTT3=
EXTT4=
EXTT5=
EXTT6=
EXTT7=
EXTT8=
EXTT9=
EXTT10=
EXTT11=
PLAYORDER=
